{"title":"Taps (1981) Tom Cruise + Sean Penn(Optional subs Swe+Eng)","uid":4763453,"size":750260152,"categoryP":"video","categoryS":"movies","magnet":"?xt=urn:btih:fa3fc0d0e6228e205c2e13da0bf70625bb82c034&amp;dn=Taps+%281981%29+Tom+Cruise+%2B+Sean+Penn%28Optional+subs+Swe%2BEng%29&amp;tr=udp%3A%2F%2Ftracker.openbittorrent.com%3A80&amp;tr=udp%3A%2F%2Fopen.demonii.com%3A1337&amp;tr=udp%3A%2F%2Ftracker.coppersurfer.tk%3A6969&amp;tr=udp%3A%2F%2Fexodus.desync.com%3A6969","seeders":1,"leechers":0,"uploader":"Kuthumi","files":-1,"time":1236783479,"description":"a.k.a.: \nTaps the movie - Taps, the Movie\nThe Siege at Bunker Hill: T.A.P.S\nTaps\nTaps* &lt;a href=&quot;\nhttp://www.imdb.com/title/tt0083169/&quot; rel=&quot;nofollow&quot; target=&quot;_NEW&quot;&gt;\nhttp://www.imdb.com/title/tt0083169/&lt;/a&gt;\n\nOptional subtitles in separate idx/sub files: English, Swedish (Work in Windows Media Player etc.)\n\nGreat classic with a very young Tom Cruise as a trigger-happy military cadet (then only 19 years). Also one of the first films for Sean Penn (then 21) and Timothy Hutton (then 21). \nReally thought-provoking plot: How will a group of young men, heavily armed and trained for battle, react if their own home base comes under attack?\n\nMy new ripping procedure now produces decent quality for such a long film compressed into just 700 MiB. I enclose a sample for ye weak in faith. \n\nWidescreen DVDrip XviD 2-pass 704x368, great stereo sound AC3.\nBurn tested, runs well in both my standalone DivX players.\n\nMediaInfo analysis:\nFormat/Info                      : Audio Video Interleave\nFile size                        : 696 MiB\nDuration                         : 2h 1mn\nOveral bit rate                  : 803 Kbps\n\nVideo\nFormat                           : MPEG-4 Visual\nFormat profile                   : Streaming Video@L1\nFormat settings, BVOP            : Yes\nFormat settings, QPel            : No\nFormat settings, GMC             : No warppoints\nFormat settings, Matrix          : Default\nMuxing mode                      : Packet Bitstream\nCodec ID                         : XVID\nCodec ID/Hint                    : XviD\nDuration                         : 2h 1mn\nBit rate                         : 665 Kbps\nWidth                            : 704 pixels\nHeight                           : 368 pixels\nDisplay aspect ratio             : 1.913\nFrame rate                       : 25.000 fps\nResolution                       : 8 bits\nColorimetry                      : 4:2:0\nScan type                        : Progressive\nBits/(Pixel*Frame)               : 0.103\nStream size                      : 577 MiB\nWriting library                  : XviD 1.2.0.dev47 (UTC 2006-11-01)\n\nAudio\nFormat                           : MPEG Audio\nFormat version                   : Version 1\nFormat profile                   : Layer 3\nCodec ID                         : 55\nCodec ID/Hint                    : MP3\nDuration                         : 2h 1mn\nBit rate mode                    : Constant\nBit rate                         : 128 Kbps\nMinimum bit rate                 : 128 Kbps\nChannel(s)                       : 2 channels\nSampling rate                    : 48.0 KHz\nResolution                       : 16 bits\nStream size                      : 111 MiB\nWriting library                  : LAME3.97 \nEncoding settings                : CBR\n\nSource: PAL native (note that PAL/NTSC will give no problems for avi files.","torrent":{"xt":"urn:btih:fa3fc0d0e6228e205c2e13da0bf70625bb82c034","amp;dn":"Taps+%281981%29+Tom+Cruise+%2B+Sean+Penn%28Optional+subs+Swe%2BEng%29","amp;tr":["udp%3A%2F%2Ftracker.openbittorrent.com%3A80","udp%3A%2F%2Fopen.demonii.com%3A1337","udp%3A%2F%2Ftracker.coppersurfer.tk%3A6969","udp%3A%2F%2Fexodus.desync.com%3A6969"],"infoHash":"fa3fc0d0e6228e205c2e13da0bf70625bb82c034","infoHashBuffer":{"type":"Buffer","data":[250,63,192,208,230,34,142,32,92,46,19,218,11,247,6,37,187,130,192,52]},"announce":[],"urlList":[]}}